# xmcd
#
# Track frame offsets:
#	150
#	9697
#	21505
#	30822
#	51785
#	66755
#	80212
#	94090
#	106940
#	130077
#	148622
#	164010
#	176017
#	189885
#	206542
#	231182
#	244655
#	260457
#	275167
#	288902
#	303110
#
# Disc length: 4354 seconds
#
# Revision: 0
# Processed by: cddbd v1.4PL0 Copyright (c) Steve Scherf et al.
# Submitted via: audiograbber 1.80.04
#
DISCID=26110015
DTITLE=Con O'Neill and Warwick Evans - A Tribute to The Blues Brothers
DYEAR=1991
DGENRE=Blues
TTITLE0=Peter Gunn Theme/I Can't Turn You Loose Theme
TTITLE1=Everybody Needs Somebody To Love
TTITLE2=Hey Bartender
TTITLE3=Rawhide
TTITLE4=Shake A Tail Feather
TTITLE5=Two Little Boys
TTITLE6=Messin With The Kid
TTITLE7=Rubber Biscuit
TTITLE8=Shotgun Blues
TTITLE9=In The Midnight Hour
TTITLE10=Riot In Cell Block No. 9
TTITLE11=Gimme Some Lovin'
TTITLE12=Flip, Flop And Fly
TTITLE13=Minnie The Moocher
TTITLE14=Under The Boardwalk
TTITLE15=Do You Love Me
TTITLE16=I Don't Know
TTITLE17=Guilty
TTITLE18=Soul Man
TTITLE19=Jailhouse Rock
TTITLE20=Finale: Sweet Home Chicago
EXTD=
EXTT0=
EXTT1=
EXTT2=
EXTT3=
EXTT4=
EXTT5=
EXTT6=
EXTT7=
EXTT8=
EXTT9=
EXTT10=
EXTT11=
EXTT12=
EXTT13=
EXTT14=
EXTT15=
EXTT16=
EXTT17=
EXTT18=
EXTT19=
EXTT20=
PLAYORDER=
